{"title":"Rampage (2018) 720p HDCAM x264 AAC by Full4movies.mkv","magnet":"magnet:?xt=urn:btih:b1d14063ed8418c724332670dd5631c3186b6fc4&dn=Rampage+%282018%29+720p+HDCAM+x264+AAC+by+Full4movies.mkv&tr=udp%3A%2F%2Ftracker.leechers-paradise.org%3A6969&tr=udp%3A%2F%2Fzer0day.ch%3A1337&tr=udp%3A%2F%2Fopen.demonii.com%3A1337&tr=udp%3A%2F%2Ftracker.coppersurfer.tk%3A6969&tr=udp%3A%2F%2Fexodus.desync.com%3A6969","uploader":"shmasti","categoryP":"video","categoryS":"movies","size":"837832144","seeders":"86","leechers":"75","description":"General\r\nComplete name                  : Rampage (2018) 720p HDCAM x264 AAC by Full4movies.mkv\r\nFormat                         : Matroska\r\nFormat version                 : Version 4 / Version 2\r\nFile size                      : 799 MiB\r\nDuration                       : 1 h 39 min\r\nOverall bit rate               : 1 121 kb/s\r\nMovie name                     : Rampage (2018) - www.Full4movies.co\r\nEncoded date                   : UTC 2018-04-14 06:10:38\r\nWriting application            : mkvmerge v8.1.0 (&apos;Psychedelic Postcard&apos;) 32bit\r\nWriting library                : libebml v1.3.1 + libmatroska v1.4.2\r\n\r\nVideo\r\nID                             : 1\r\nFormat                         : AVC\r\nFormat/Info                    : Advanced Video Codec\r\nFormat profile                 : <a href=\"/cdn-cgi/l/email-protection\" class=\"__cf_email__\" data-cfemail=\"763b171f18363a455847\">[email&#xA0;protected]</a>\r\nFormat settings, CABAC         : Yes\r\nFormat settings, RefFrames     : 4 frames\r\nCodec ID                       : V_MPEG4/ISO/AVC\r\nDuration                       : 1 h 39 min\r\nBit rate                       : 990 kb/s\r\nWidth                          : 1 280 pixels\r\nHeight                         : 528 pixels\r\nDisplay aspect ratio           : 2.40:1\r\nFrame rate mode                : Variable\r\nFrame rate                     : 29.970 FPS\r\nColor space                    : YUV\r\nChroma subsampling             : 4:2:0\r\nBit depth                      : 8 bits\r\nScan type                      : Progressive\r\nBits/(Pixel*Frame)             : 0.049\r\nStream size                    : 705 MiB (88%)\r\nWriting library                : x264 core 112\r\nDefault                        : Yes\r\nForced                         : No\r\nColor range                    : Limited\r\nColor primaries                : BT.709\r\nTransfer characteristics       : BT.709\r\nMatrix coefficients            : BT.709\r\n\r\nAudio\r\nID                             : 2\r\nFormat                         : AAC\r\nFormat/Info                    : Advanced Audio Codec\r\nFormat profile                 : LC\r\nCodec ID                       : A_AAC\r\nDuration                       : 1 h 39 min\r\nBit rate                       : 128 kb/s\r\nChannel(s)                     : 2 channels\r\nChannel positions              : Front: L R\r\nSampling rate                  : 48.0 kHz\r\nFrame rate                     : 46.875 FPS (1024 SPF)\r\nCompression mode               : Lossy\r\nStream size                    : 91.2 MiB (11%)\r\nLanguage                       : English\r\nDefault                        : Yes\r\nForced                         : No","last_updated":"2018-04-14T17:42:28.258Z","parsed":{"xt":"urn:btih:b1d14063ed8418c724332670dd5631c3186b6fc4","dn":"Rampage (2018) 720p HDCAM x264 AAC by Full4movies.mkv","tr":["udp://exodus.desync.com:6969","udp://open.demonii.com:1337","udp://tracker.coppersurfer.tk:6969","udp://tracker.leechers-paradise.org:6969","udp://zer0day.ch:1337"],"infoHash":"b1d14063ed8418c724332670dd5631c3186b6fc4","infoHashBuffer":{"type":"Buffer","data":[177,209,64,99,237,132,24,199,36,51,38,112,221,86,49,195,24,107,111,196]},"name":"Rampage (2018) 720p HDCAM x264 AAC by Full4movies.mkv","announce":["udp://exodus.desync.com:6969","udp://open.demonii.com:1337","udp://tracker.coppersurfer.tk:6969","udp://tracker.leechers-paradise.org:6969","udp://zer0day.ch:1337"],"urlList":[]}}